<svg width="7" height="12" viewBox="0 0 7 12" fill="none" xmlns="http://www.w3.org/2000/svg">
<path d="M1.57181 0.665527C1.38711 0.460267 1.07101 0.443627 0.865706 0.628357C0.660506 0.813087 0.643806 1.12924 0.828506 1.33449L1.57181 0.665527ZM5.70021 6.00001L6.07181 6.33451C6.24301 6.14431 6.24301 5.85571 6.07181 5.66551L5.70021 6.00001ZM0.828506 10.6655C0.643806 10.8708 0.660506 11.1869 0.865706 11.3716C1.07101 11.5564 1.38711 11.5397 1.57181 11.3345L0.828506 10.6655ZM0.828506 1.33449L5.32851 6.33451L6.07181 5.66551L1.57181 0.665527L0.828506 1.33449ZM5.32851 5.66551L0.828506 10.6655L1.57181 11.3345L6.07181 6.33451L5.32851 5.66551Z" fill="white"/>
</svg>
